<svg width="20" height="20" viewBox="0 0 20 20" fill="none" xmlns="http://www.w3.org/2000/svg">
<path d="M20 10.1268C20 8.85915 19.0016 7.84507 17.7535 7.97183C17.2543 7.97183 16.6303 8.22535 16.2558 8.60563C14.5086 7.46479 12.5117 6.70423 10.39 6.70423L11.3885 1.88732L14.6334 2.64789C14.6334 3.53521 15.3822 4.16901 16.2558 4.16901C17.1295 4.16901 17.7535 3.40845 17.7535 2.52113C17.7535 1.6338 17.0047 1 16.131 1C15.507 1 15.0078 1.38028 14.7582 1.88732L11.2637 1H11.014C10.8892 1 10.8892 1.12676 10.8892 1.25352L9.64119 6.70423C7.5195 6.70423 5.52262 7.33803 3.77535 8.60563C2.90172 7.71831 1.52886 7.71831 0.655226 8.60563C-0.218409 9.49296 -0.218409 10.8873 0.655226 11.7746C0.780031 11.9014 1.02964 12.1549 1.27925 12.1549V12.7887C1.27925 16.2113 5.14821 19 10.0156 19C14.883 19 18.752 16.2113 18.752 12.7887V12.1549C19.5008 11.7746 20 11.0141 20 10.1268ZM5.0234 11.7746C5.0234 10.8873 5.77223 10.2535 6.52106 10.2535C7.3947 10.2535 8.01872 11.0141 8.01872 11.7746C8.01872 12.5352 7.26989 13.2958 6.52106 13.2958C5.64743 13.2958 5.0234 12.662 5.0234 11.7746ZM13.7598 15.9577C12.6365 16.7183 11.3885 17.2254 10.0156 17.0986C8.64275 17.0986 7.3947 16.7183 6.27145 15.9577C6.14665 15.831 6.14665 15.5775 6.27145 15.3239C6.39626 15.1972 6.64587 15.1972 6.77067 15.3239C7.64431 15.9577 8.76755 16.338 9.8908 16.2113C11.014 16.338 12.1373 15.9577 13.0109 15.3239C13.1357 15.1972 13.3853 15.1972 13.6349 15.3239C13.8846 15.4507 13.8846 15.7042 13.7598 15.9577ZM13.3853 13.2958C12.5117 13.2958 11.8877 12.5352 11.8877 11.7746C11.8877 11.0141 12.6365 10.2535 13.3853 10.2535C14.259 10.2535 14.883 11.0141 14.883 11.7746C15.0078 12.662 14.259 13.2958 13.3853 13.2958Z" fill="#B5BDC6"/>
</svg>
