<svg version="1.2" baseProfile="tiny-ps" xmlns="http://www.w3.org/2000/svg" viewBox="0 0 14 18" width="14" height="18">
	<title>admin-svg</title>
	<style>
		tspan { white-space:pre }
		.shp0 { fill: #ffffff } 
		.shp1 { fill: #ff0057 } 
	</style>
	<path id="Layer" class="shp0" d="M7 8.8C9 8.8 10.62 6.83 10.62 4.4C10.62 1.97 10.09 0 7 0C3.91 0 3.38 1.97 3.38 4.4C3.38 6.83 5 8.8 7 8.8Z" />
	<path id="Layer" class="shp1" d="M13.84 15.64C13.85 15.6 13.84 15.36 13.84 15.64L13.84 15.64Z" />
	<path id="Layer" class="shp0" d="M13.84 15.35C13.77 11.11 13.22 9.9 8.98 9.14C8.98 9.14 8.39 9.9 7 9.9C5.61 9.9 5.01 9.14 5.01 9.14C0.83 9.9 0.24 11.09 0.16 15.21C0.16 15.55 0.16 15.56 0.15 15.52C0.15 15.6 0.15 15.73 0.15 15.97C0.15 15.97 1.16 18 7 18C12.84 18 13.84 15.97 13.84 15.97C13.84 15.82 13.84 15.71 13.84 15.64C13.84 15.66 13.84 15.62 13.84 15.35Z" />
</svg>