<svg width="14" height="18" viewBox="0 0 14 18" fill="none" xmlns="http://www.w3.org/2000/svg">
<path d="M7.00087 8.80318C9.00216 8.80318 10.6247 6.83254 10.6247 4.40162C10.6247 1.97064 10.092 0 7.00087 0C3.90975 0 3.37695 1.97064 3.37695 4.40162C3.37695 6.83254 4.99947 8.80318 7.00087 8.80318Z" fill="#FF0057"/>
<path d="M13.8438 15.6395C13.8457 15.5989 13.8444 15.358 13.8438 15.6395V15.6395Z" fill="#FF0057"/>
<path d="M13.8357 15.3461C13.7686 11.1114 13.2155 9.90469 8.9833 9.14087C8.9833 9.14087 8.38755 9.90001 6.99898 9.90001C5.6104 9.90001 5.01455 9.14087 5.01455 9.14087C0.828525 9.89636 0.241828 11.0851 0.164685 15.2085C0.15836 15.5452 0.155428 15.5629 0.154297 15.5238C0.154554 15.5971 0.154862 15.7325 0.154862 15.9687C0.154862 15.9687 1.16245 18 6.99898 18C12.8354 18 13.8431 15.9687 13.8431 15.9687C13.8431 15.817 13.8432 15.7114 13.8433 15.6396C13.8422 15.6638 13.84 15.617 13.8357 15.3461Z" fill="#FF0057"/>
</svg>
