<svg version="1.2" baseProfile="tiny-ps" xmlns="http://www.w3.org/2000/svg" viewBox="0 0 12 19" width="12" height="19">
	<title>customer_service-svg</title>
	<style>
		tspan { white-space:pre }
		.shp0 { fill: #ffffff } 
	</style>
	<path id="Layer" fill-rule="evenodd" class="shp0" d="M0 6C0 2 2.69 0 6 0C9.31 0 12 2 12 6C12 8.69 11.52 9.17 10.92 9.77C10.63 10.07 10.31 10.39 10 11C9.57 11.86 9.33 12.53 9.19 13.02C9.03 13.55 8.55 14 8 14L4 14C3.45 14 2.97 13.55 2.81 13.02C2.67 12.53 2.43 11.86 2 11C1.69 10.39 1.37 10.07 1.08 9.77C0.48 9.17 0 8.69 0 6ZM3.11 2.97C2.5 3.54 2 4.47 2 6C2 6.93 2.06 7.46 2.13 7.77C2.19 8.02 2.24 8.09 2.25 8.1L2.25 8.1C2.3 8.17 2.33 8.19 2.39 8.25L2.39 8.25L2.39 8.25C2.45 8.31 2.54 8.4 2.74 8.61C3.08 8.96 3.45 9.42 3.79 10.11C4.15 10.84 4.41 11.47 4.59 12L7.41 12C7.59 11.47 7.85 10.84 8.21 10.11C8.55 9.42 8.92 8.96 9.26 8.61C9.46 8.4 9.55 8.31 9.61 8.25L9.61 8.25C9.67 8.19 9.7 8.17 9.75 8.1L9.75 8.1C9.76 8.09 9.81 8.02 9.87 7.77C9.94 7.46 10 6.93 10 6C10 4.47 9.5 3.54 8.89 2.97C8.25 2.38 7.27 2 6 2C4.73 2 3.75 2.38 3.11 2.97ZM3 15.5C3 15.22 3.22 15 3.5 15L8.5 15C8.78 15 9 15.22 9 15.5L9 17.74C9 17.9 8.92 18.06 8.79 18.14C8.42 18.38 7.67 18.83 7.05 18.99C7.02 19 6.98 19 6.94 19L5.05 19C5.02 19 4.98 19 4.95 18.99C4.33 18.83 3.58 18.38 3.21 18.14C3.08 18.06 3 17.9 3 17.74L3 15.5ZM5 5.51L5 5.51C5 6.06 4.55 6.5 4 6.5C3.45 6.5 3 6.05 3 5.5C3 4.99 3.23 4.4 3.59 3.94C3.99 3.45 4.63 3 5.5 3C6.05 3 6.5 3.45 6.5 4C6.5 4.55 6.05 5 5.5 5C5.37 5 5.26 5.05 5.16 5.19C5.1 5.26 5.06 5.34 5.03 5.41C5.01 5.46 5 5.5 5 5.51C5 5.51 5 5.51 5 5.51Z" />
</svg>