<svg version="1.2" xmlns="http://www.w3.org/2000/svg" viewBox="0 0 18 17" width="18" height="17">
	<title>icon-svg</title>
	<style>
		.s0 { fill: #ff0057 } 
	</style>
	<path id="Layer" fill-rule="evenodd" class="s0" d="m2.3 10h3.7c0.9 0 1.7 0.6 1.9 1.5h2.2c0.2-0.9 1-1.5 1.9-1.5h3.7l-1.7-6.6q0-0.2-0.1-0.3q0-0.2-0.1-0.4q-0.1-0.3-0.2-0.5q-0.1-0.1-0.4-0.2c-0.2 0-0.5 0-1 0.1c-0.5 0.1-1.1-0.3-1.2-0.8c-0.1-0.6 0.3-1.1 0.8-1.2q1.1-0.2 1.9 0c0.6 0.2 1 0.5 1.4 0.8c0.3 0.4 0.5 0.8 0.6 1.1q0.1 0.2 0.1 0.4q0.1 0.2 0.1 0.3l0.1 0.1l1.9 7.8q0.1 0.2 0.1 0.4v0.1q0 0 0 0v3.7c0 1.2-1 2.1-2.2 2l-4.9-0.4c-0.5 0-0.9-0.4-0.9-1v-1.9h-2v1.9c0 0.6-0.4 1-0.9 1l-4.9 0.4c-1.2 0.1-2.2-0.8-2.2-2v-3.7q0 0 0 0v-0.1q0-0.2 0.1-0.4l1.9-7.8l0.1-0.1q0-0.1 0.1-0.3q0-0.2 0.1-0.4c0.1-0.3 0.3-0.7 0.6-1.1c0.4-0.3 0.8-0.6 1.4-0.8q0.8-0.2 1.9 0c0.5 0.1 0.9 0.6 0.8 1.2c-0.1 0.5-0.7 0.9-1.2 0.8c-0.5-0.1-0.8-0.1-1-0.1q-0.3 0.1-0.4 0.2q-0.1 0.2-0.2 0.5q-0.1 0.2-0.1 0.4q-0.1 0.1-0.1 0.3zm3.7 2h-4v2.8l4-0.3zm6 2.5l4 0.3v-2.8h-4z"/>
</svg>