<svg width="18" height="17" viewBox="0 0 18 17" fill="none" xmlns="http://www.w3.org/2000/svg">
<path fill-rule="evenodd" clip-rule="evenodd" d="M3.9552 3.39509C3.99788 3.2823 4.03612 3.16726 4.06829 3.07047L4.07124 3.06161C4.11373 2.93379 4.15053 2.82331 4.1921 2.71459C4.27586 2.49553 4.35617 2.34779 4.44456 2.24544C4.5194 2.15878 4.61442 2.08678 4.7805 2.04265C4.9635 1.99402 5.2805 1.96766 5.80413 2.07238C6.34569 2.18069 6.87251 1.82947 6.98082 1.28791C7.08913 0.746345 6.7379 0.219523 6.19634 0.111217C5.46998 -0.0340479 4.82864 -0.0395611 4.26684 0.109734C3.68814 0.263523 3.2519 0.566527 2.93091 0.938207C2.62347 1.29419 2.44337 1.68812 2.324 2.00031C2.26595 2.15214 2.21684 2.29987 2.17731 2.41879L2.17338 2.43064C2.12991 2.56137 2.10032 2.64905 2.07176 2.72044L2.04655 2.78345L2.03009 2.84929L0.102857 10.5582C0.0371515 10.6915 0.000236685 10.8414 0.000236685 11V11.0709C-7.96688e-05 11.0854 -7.7966e-05 11.0998 0.000236685 11.1143V14.8346C0.000236685 16.0017 0.995412 16.9208 2.15883 16.8283L7.07953 16.4369C7.59942 16.3955 8.00024 15.9616 8.00024 15.44V13.5H10.0002V15.44C10.0002 15.9616 10.401 16.3955 10.9209 16.4369L15.8416 16.8283C17.0051 16.9208 18.0002 16.0017 18.0002 14.8346V11.1142C18.0006 11.0998 18.0006 11.0854 18.0002 11.0709V11C18.0002 10.8414 17.9633 10.6915 17.8976 10.5582L15.9704 2.84929L15.9539 2.78345L15.9287 2.72044C15.9002 2.64905 15.8706 2.56137 15.8271 2.43064L15.8232 2.41879C15.7836 2.29987 15.7345 2.15214 15.6765 2.00031C15.5571 1.68812 15.377 1.29419 15.0696 0.938207C14.7486 0.566527 14.3123 0.263523 13.7336 0.109734C13.1718 -0.0395611 12.5305 -0.0340479 11.8041 0.111217C11.2626 0.219523 10.9113 0.746345 11.0197 1.28791C11.128 1.82947 11.6548 2.18069 12.1963 2.07238C12.72 1.96766 13.037 1.99402 13.22 2.04265C13.3861 2.08678 13.4811 2.15878 13.5559 2.24544C13.6443 2.34779 13.7246 2.49553 13.8084 2.71459C13.8499 2.82331 13.8867 2.93379 13.9292 3.06161L13.9322 3.07047L13.9322 3.07048C13.9644 3.16727 14.0026 3.2823 14.0453 3.39509L15.6965 10H12.0002C11.0683 10 10.2853 10.6374 10.0632 11.5H7.93723C7.71521 10.6374 6.93216 10 6.00024 10H2.30397L3.9552 3.39509ZM6.00024 14.5164L2.00024 14.8346V12H6.00024V14.5164ZM12.0002 14.5164L16.0002 14.8346V12H12.0002V14.5164Z" fill="white"/>
</svg>
