<svg version="1.2" baseProfile="tiny-ps" xmlns="http://www.w3.org/2000/svg" viewBox="0 0 17 17" width="17" height="17">
	<title>honorarium-svg</title>
	<style>
		tspan { white-space:pre }
		.shp0 { fill: #ffffff } 
	</style>
	<path id="Layer" fill-rule="evenodd" class="shp0" d="M17 8.5C17 10.77 16.12 12.9 14.51 14.51C12.9 16.12 10.77 17 8.5 17C6.23 17 4.09 16.12 2.49 14.51C0.88 12.9 0 10.77 0 8.5C0 6.23 0.88 4.1 2.49 2.49C4.1 0.88 6.23 0 8.5 0C10.77 0 12.9 0.88 14.51 2.49C16.12 4.1 17 6.23 17 8.5ZM7.18 6.55C7.22 5.89 7.75 5.36 8.41 5.32C9.18 5.26 9.83 5.88 9.83 6.64C9.83 6.94 10.07 7.18 10.38 7.17C10.66 7.16 10.89 6.92 10.89 6.63C10.88 5.54 10.15 4.62 9.15 4.34C9.08 4.32 9.03 4.26 9.03 4.18L9.03 3.72C9.03 3.42 8.78 3.17 8.47 3.19C8.19 3.2 7.97 3.45 7.97 3.73L7.97 4.18C7.97 4.26 7.92 4.32 7.85 4.34C6.85 4.63 6.11 5.55 6.11 6.64C6.11 7.96 7.18 9.03 8.5 9.03C9.26 9.03 9.88 9.68 9.82 10.45C9.78 11.11 9.25 11.64 8.59 11.68C7.82 11.74 7.17 11.12 7.17 10.36C7.17 10.06 6.93 9.82 6.63 9.83C6.34 9.84 6.11 10.08 6.11 10.37C6.12 11.46 6.85 12.38 7.85 12.66C7.92 12.68 7.97 12.74 7.97 12.82L7.97 13.28C7.97 13.58 8.22 13.83 8.53 13.81C8.81 13.8 9.03 13.55 9.03 13.27L9.03 12.82C9.03 12.74 9.08 12.68 9.15 12.66C10.15 12.37 10.89 11.45 10.89 10.36C10.89 9.04 9.82 7.97 8.5 7.97C7.74 7.97 7.12 7.32 7.18 6.55Z" />
</svg>